<svg width="30" height="30" viewBox="0 0 30 30" fill="none" xmlns="http://www.w3.org/2000/svg">
<rect width="30" height="30" rx="5" fill="url(#paint0_linear_1_70)"/>
<path d="M11 17L6.5 17.2513L16.5 5.5L16.4286 10.5914L11 17Z" fill="white"/>
<path d="M10.7733 17.2677H8.61109L14.9189 9.70909L15 9L16.5 5C17.2225 6.05705 16.6666 7.76201 16.5 10L10.7733 17.2677Z" fill="#CBCBCB"/>
<path d="M19.9451 25H14.6703L15.0471 22.4194L15.1099 21.9892H5L5.43956 18.1183H8.2967H11.1538H11.5934H15.8766L18.4066 5H23.2418L21.044 18.1183L25 21.9892H20.3846L19.9451 25Z" fill="black"/>
<path d="M16.4286 10.8065L17.5275 5H16.2088L6.05722 17.2581H6.93634L16.4286 6L16.1234 7.46891V8.75734L16 10L10.2359 17.2581H11.3348L16.4286 10.8065Z" fill="black"/>
<path d="M6.0989 21.129H14.6703H16.2088L15.7692 24.3548H18.8462L19.2857 21.129H22.8022L19.7253 18.3333L22.1429 6.07527H19.0659L16.8681 18.7634H6.31868L6.0989 21.129Z" fill="white"/>
<path d="M18.8462 18.5484L21.2637 6.07527H22.1429L19.7253 18.3333L22.8022 21.129H21.7033L18.8462 18.5484Z" fill="#CBCBCB"/>
<path d="M15.3297 9.73119V8.22581L7.81343 17.2704H8.67762H9.33696L15.3297 9.73119Z" fill="black"/>
<defs>
<linearGradient id="paint0_linear_1_70" x1="1.39926e-06" y1="-1.07143" x2="30" y2="30" gradientUnits="userSpaceOnUse">
<stop stop-color="#924FFF"/>
<stop offset="1" stop-color="#6400E3"/>
</linearGradient>
</defs>
</svg>
